<?xml version="1.0" encoding="UTF-8"?>
<svg version="1.1" xmlns="http://www.w3.org/2000/svg" width="512" height="512">
<path d="M0 0 C0.73099684 -0.00235223 1.46199369 -0.00470446 2.21514195 -0.00712797 C4.67782785 -0.01381348 7.14046093 -0.01335988 9.60315514 -0.01294994 C11.38139501 -0.01624884 13.15963413 -0.01997447 14.93787229 -0.02409142 C19.83500977 -0.03411651 24.73213499 -0.03782903 29.62928128 -0.04048073 C34.90689379 -0.04438226 40.18449658 -0.05396068 45.46210289 -0.0626936 C58.21253957 -0.08246197 70.96297705 -0.09252454 83.71342522 -0.10142139 C89.71621348 -0.10580354 95.71900085 -0.11117053 101.72178841 -0.11641026 C121.67347658 -0.13342266 141.6251642 -0.14791729 161.57685852 -0.155159 C166.75516956 -0.15706892 171.93348059 -0.15898925 177.11179161 -0.16094494 C178.39885208 -0.16142868 179.68591255 -0.16191242 181.01197486 -0.16241082 C201.86600671 -0.17071283 222.71998123 -0.19605262 243.57398804 -0.22852562 C264.978859 -0.26158499 286.38370083 -0.27960673 307.78859746 -0.28280324 C319.80888764 -0.28496934 331.8290942 -0.29373268 343.84935951 -0.31926441 C354.0854097 -0.34095602 364.32135597 -0.34902937 374.55742653 -0.33929763 C379.77991162 -0.33474854 385.00218222 -0.33667471 390.22463799 -0.35605907 C395.00785063 -0.37365974 399.79069183 -0.37271807 404.57390825 -0.35716178 C406.30208889 -0.35478102 408.03029504 -0.35913352 409.75843664 -0.37099043 C420.13851379 -0.4377839 428.48965708 0.26869206 437.5390377 5.82172108 C444.25699265 12.72628589 448.03470116 19.82313377 448.04909992 29.49946594 C448.05290559 30.23499338 448.05671126 30.97052081 448.06063226 31.72833696 C448.07096353 34.20046933 448.06703906 36.67237274 448.06319237 39.14452076 C448.06764394 40.93187475 448.07295772 42.71922677 448.07906109 44.50657588 C448.09326127 49.4242712 448.094904 54.34190337 448.09446418 59.25961626 C448.09611062 64.56107766 448.10917391 69.86251292 448.12065697 75.16396046 C448.14351979 86.75900698 448.15142898 98.35403521 448.15648341 109.94910121 C448.15973899 117.18814126 448.16626063 124.42717599 448.1734848 131.66621304 C448.19305253 151.706299 448.20945568 171.74638 448.21236134 191.78647614 C448.21254891 193.06922819 448.21273648 194.35198025 448.21292973 195.67360358 C448.21329598 198.27409669 448.21365968 200.87458979 448.21402084 203.4750829 C448.21420365 204.76598473 448.21438646 206.05688656 448.21457481 207.38690662 C448.21484564 209.32562092 448.21484564 209.32562092 448.21512193 211.30350117 C448.21866385 232.24801951 448.24568663 253.19243505 448.2830727 274.13691773 C448.32114317 295.63674576 448.34051872 317.13652277 448.34082085 338.63638526 C448.34140571 350.70921366 448.34991612 362.78191944 448.37881851 374.8547163 C448.4033155 385.13468044 448.4106266 395.41447725 448.39557099 405.69446268 C448.38839523 410.93927387 448.38928848 416.18375452 448.41198158 421.42852879 C448.43256664 426.23213067 448.42997544 431.03514779 448.40910674 435.83874331 C448.40561096 437.57429629 448.4105256 439.30989143 448.42481118 441.04538914 C448.50898058 451.97743595 447.74659603 460.433029 440.2890377 469.00922108 C439.4640377 469.71047108 438.6390377 470.41172108 437.7890377 471.13422108 C437.0259127 471.83547108 436.2627877 472.53672108 435.4765377 473.25922108 C429.71751396 477.27714462 424.09354037 478.50900668 417.08588409 478.51453781 C416.35027187 478.51919773 415.61465965 478.52385765 414.85675615 478.52865878 C412.40228703 478.54056922 409.94837553 478.5312289 407.49390221 478.52190113 C405.71220752 478.52607578 403.93051549 478.53155402 402.14882839 478.53822094 C397.26067636 478.55267703 392.37269291 478.54843028 387.48453164 478.54105413 C382.20970529 478.53632518 376.93491556 478.54882992 371.66010094 478.55907154 C361.32924986 478.57627031 350.99845958 478.57709729 340.6675979 478.57185864 C332.27065167 478.56781765 323.87372341 478.56925965 315.47677803 478.5746069 C313.68430067 478.57572953 313.68430067 478.57572953 311.85561164 478.57687484 C309.42801722 478.57840631 307.00042281 478.57994466 304.5728284 478.58148981 C281.80560632 478.5952188 259.0384186 478.58977439 236.2711973 478.5783046 C215.44327914 478.5683722 194.6154498 478.58131232 173.78754534 478.60523879 C152.40061984 478.62962231 131.01373573 478.63923947 109.6267966 478.63258606 C97.61998974 478.62909213 85.61325121 478.63133738 73.60645485 478.64883709 C63.38512902 478.6635497 53.16391962 478.66420677 42.94259609 478.64676618 C37.72819258 478.63824605 32.51399715 478.63613147 27.29960442 478.65141773 C22.52393921 478.66524445 17.74866076 478.66052747 12.97301804 478.6411785 C11.24765438 478.637412 9.52225989 478.64035915 7.79692365 478.65079015 C-2.57234488 478.7090105 -10.92143161 477.99370582 -19.9609623 472.44672108 C-26.99324382 465.2190984 -30.4572892 457.80960651 -30.4682312 447.67716312 C-30.47173728 446.94385859 -30.47524335 446.21055406 -30.47885567 445.45502818 C-30.48816361 442.99647453 -30.48324794 440.53815807 -30.47838783 438.07959461 C-30.4821244 436.29962749 -30.48672595 434.519662 -30.49211848 432.73969913 C-30.50436313 427.84706268 -30.50408628 422.95449453 -30.50172973 418.06184626 C-30.50132193 412.78562679 -30.51235718 407.50942934 -30.52184486 402.2332201 C-30.53846399 391.89542379 -30.54395483 381.55765029 -30.54506962 371.21984175 C-30.54601968 362.81712982 -30.55012789 354.41442543 -30.55647087 346.01171589 C-30.57408595 322.19200532 -30.58330935 298.37231278 -30.58180992 274.55259565 C-30.58173001 273.26823321 -30.5816501 271.98387077 -30.58156776 270.66058826 C-30.581486 269.3746588 -30.58140424 268.08872933 -30.58132 266.7638323 C-30.58050708 245.92285705 -30.59964569 225.08195407 -30.6278445 204.24099973 C-30.65656588 182.84510154 -30.67038519 161.44923861 -30.66865695 140.05332065 C-30.66799278 128.03977231 -30.67349689 116.02629973 -30.69501305 104.01276875 C-30.71321502 93.78408081 -30.71758024 83.55550297 -30.7039942 73.32680586 C-30.69745957 68.10836157 -30.69736536 62.89012855 -30.7147007 57.67170429 C-30.73041439 52.89226537 -30.72758506 48.11320555 -30.71013243 43.33377597 C-30.7070588 41.60700382 -30.71070862 39.88020351 -30.72185259 38.15346459 C-30.7860133 27.50452353 -30.05909894 19.01960654 -24.0859623 9.88422108 C-16.79049909 2.90595192 -9.96091625 0.01364804 0 0 Z " fill="#000000" transform="translate(47.21096229553223,16.865778923034668)"/>
<path d="M0 0 C2.02304606 -0.00968196 4.04506293 -0.04078988 6.06787109 -0.07226562 C23.44765342 -0.14035488 39.78287986 3.60870241 52.50537109 15.89648438 C63.08392865 27.30948286 63.47159099 39.86232222 62.97412109 54.61230469 C62.60238129 59.93332496 61.14586572 64.49081851 58.79052734 69.24023438 C58.43990234 69.95824219 58.08927734 70.67625 57.72802734 71.41601562 C50.6124254 84.14009549 38.54678998 91.19734905 24.85302734 95.11523438 C16.72282006 97.15100736 8.81389289 97.39516567 0.47802734 97.36523438 C-0.61832031 97.36910156 -1.71466797 97.37296875 -2.84423828 97.37695312 C-3.88902344 97.37566406 -4.93380859 97.374375 -6.01025391 97.37304688 C-7.43591675 97.37135498 -7.43591675 97.37135498 -8.89038086 97.36962891 C-11.20947266 97.24023438 -11.20947266 97.24023438 -13.20947266 96.24023438 C-13.20947266 117.03023438 -13.20947266 137.82023438 -13.20947266 159.24023438 C-20.13947266 159.24023438 -27.06947266 159.24023438 -34.20947266 159.24023438 C-34.20947266 107.76023437 -34.20947266 56.28023437 -34.20947266 3.24023438 C-22.47104848 1.28383035 -11.83081764 0.03408639 0 0 Z " fill="#FAFAFA" transform="translate(292.20947265625,176.759765625)"/>
<path d="M0 0 C1.20293701 0.00737183 1.20293701 0.00737183 2.43017578 0.01489258 C19.90923286 0.35149303 36.12541716 4.78086427 49.25 16.625 C61.46106454 30.08848142 65.05662397 42.77220734 64.9375 60.75 C64.94910156 62.49506836 64.94910156 62.49506836 64.9609375 64.27539062 C64.92267217 81.27476406 60.1813461 97.56796759 48.73046875 110.52734375 C29.00362427 129.59540678 3.66051804 127.3125 -22.3125 127.3125 C-22.3125 86.0625 -22.3125 44.8125 -22.3125 2.3125 C-6.94003056 -0.0524953 -6.94003056 -0.0524953 0 0 Z " fill="#000000" transform="translate(145.3125,192.6875)"/>
<path d="M0 0 C0.68223633 0.00559937 1.36447266 0.01119873 2.06738281 0.01696777 C12.03174384 0.0987665 21.82193188 0.3674468 31.625 2.3125 C32.27243164 2.43608887 32.91986328 2.55967773 33.58691406 2.68701172 C52.54501771 6.41981256 68.26620976 15.19659802 79.62109375 31.203125 C91.97271823 50.3686086 94.63415497 73.61096409 90.4375 95.875 C85.9274402 116.28564272 76.55896246 134.6902842 58.6875 146.25 C56.36167799 147.66984769 54.01250677 148.99366084 51.625 150.3125 C50.74070312 150.80363281 49.85640625 151.29476562 48.9453125 151.80078125 C31.62859925 160.09944353 12.12669328 160.77911863 -6.6875 160.75 C-8.01677017 160.75019638 -8.01677017 160.75019638 -9.37289429 160.75039673 C-11.95343832 160.74355432 -14.5329702 160.71816736 -17.11328125 160.68359375 C-17.86888336 160.67800446 -18.62448547 160.67241516 -19.40298462 160.66665649 C-26.00574606 160.52604987 -31.66094052 159.43150991 -38.375 158.3125 C-38.375 107.1625 -38.375 56.0125 -38.375 3.3125 C-12.78389507 -0.17719613 -12.78389507 -0.17719613 0 0 Z M-17.375 18.3125 C-17.375 59.5625 -17.375 100.8125 -17.375 143.3125 C20.75634998 144.2622396 20.75634998 144.2622396 52.83984375 127.35546875 C66.19731656 113.53650935 69.79392793 95.599297 69.875 77.125 C69.895625 75.96935547 69.91625 74.81371094 69.9375 73.62304688 C70.00849087 57.81870344 65.43685881 44.02534705 54.625 32.3125 C41.03891556 19.85858927 22.99077327 16.19630597 5.125 16.0625 C4.00569092 16.04860229 4.00569092 16.04860229 2.86376953 16.03442383 C-4.16458817 16.07297473 -10.21249704 17.21057647 -17.375 18.3125 Z " fill="#FAFAFA" transform="translate(140.375,176.6875)"/>
<path d="M0 0 C0.73099684 -0.00235223 1.46199369 -0.00470446 2.21514195 -0.00712797 C4.67782785 -0.01381348 7.14046093 -0.01335988 9.60315514 -0.01294994 C11.38139501 -0.01624884 13.15963413 -0.01997447 14.93787229 -0.02409142 C19.83500977 -0.03411651 24.73213499 -0.03782903 29.62928128 -0.04048073 C34.90689379 -0.04438226 40.18449658 -0.05396068 45.46210289 -0.0626936 C58.21253957 -0.08246197 70.96297705 -0.09252454 83.71342522 -0.10142139 C89.71621348 -0.10580354 95.71900085 -0.11117053 101.72178841 -0.11641026 C121.67347658 -0.13342266 141.6251642 -0.14791729 161.57685852 -0.155159 C166.75516956 -0.15706892 171.93348059 -0.15898925 177.11179161 -0.16094494 C178.39885208 -0.16142868 179.68591255 -0.16191242 181.01197486 -0.16241082 C201.86600671 -0.17071283 222.71998123 -0.19605262 243.57398804 -0.22852562 C264.978859 -0.26158499 286.38370083 -0.27960673 307.78859746 -0.28280324 C319.80888764 -0.28496934 331.8290942 -0.29373268 343.84935951 -0.31926441 C354.0854097 -0.34095602 364.32135597 -0.34902937 374.55742653 -0.33929763 C379.77991162 -0.33474854 385.00218222 -0.33667471 390.22463799 -0.35605907 C395.00785063 -0.37365974 399.79069183 -0.37271807 404.57390825 -0.35716178 C406.30208889 -0.35478102 408.03029504 -0.35913352 409.75843664 -0.37099043 C420.13851379 -0.4377839 428.48965708 0.26869206 437.5390377 5.82172108 C444.25699265 12.72628589 448.03470116 19.82313377 448.04909992 29.49946594 C448.05290559 30.23499338 448.05671126 30.97052081 448.06063226 31.72833696 C448.07096353 34.20046933 448.06703906 36.67237274 448.06319237 39.14452076 C448.06764394 40.93187475 448.07295772 42.71922677 448.07906109 44.50657588 C448.09326127 49.4242712 448.094904 54.34190337 448.09446418 59.25961626 C448.09611062 64.56107766 448.10917391 69.86251292 448.12065697 75.16396046 C448.14351979 86.75900698 448.15142898 98.35403521 448.15648341 109.94910121 C448.15973899 117.18814126 448.16626063 124.42717599 448.1734848 131.66621304 C448.19305253 151.706299 448.20945568 171.74638 448.21236134 191.78647614 C448.21254891 193.06922819 448.21273648 194.35198025 448.21292973 195.67360358 C448.21329598 198.27409669 448.21365968 200.87458979 448.21402084 203.4750829 C448.21420365 204.76598473 448.21438646 206.05688656 448.21457481 207.38690662 C448.21484564 209.32562092 448.21484564 209.32562092 448.21512193 211.30350117 C448.21866385 232.24801951 448.24568663 253.19243505 448.2830727 274.13691773 C448.32114317 295.63674576 448.34051872 317.13652277 448.34082085 338.63638526 C448.34140571 350.70921366 448.34991612 362.78191944 448.37881851 374.8547163 C448.4033155 385.13468044 448.4106266 395.41447725 448.39557099 405.69446268 C448.38839523 410.93927387 448.38928848 416.18375452 448.41198158 421.42852879 C448.43256664 426.23213067 448.42997544 431.03514779 448.40910674 435.83874331 C448.40561096 437.57429629 448.4105256 439.30989143 448.42481118 441.04538914 C448.50898058 451.97743595 447.74659603 460.433029 440.2890377 469.00922108 C439.4640377 469.71047108 438.6390377 470.41172108 437.7890377 471.13422108 C437.0259127 471.83547108 436.2627877 472.53672108 435.4765377 473.25922108 C429.71751396 477.27714462 424.09354037 478.50900668 417.08588409 478.51453781 C416.35027187 478.51919773 415.61465965 478.52385765 414.85675615 478.52865878 C412.40228703 478.54056922 409.94837553 478.5312289 407.49390221 478.52190113 C405.71220752 478.52607578 403.93051549 478.53155402 402.14882839 478.53822094 C397.26067636 478.55267703 392.37269291 478.54843028 387.48453164 478.54105413 C382.20970529 478.53632518 376.93491556 478.54882992 371.66010094 478.55907154 C361.32924986 478.57627031 350.99845958 478.57709729 340.6675979 478.57185864 C332.27065167 478.56781765 323.87372341 478.56925965 315.47677803 478.5746069 C313.68430067 478.57572953 313.68430067 478.57572953 311.85561164 478.57687484 C309.42801722 478.57840631 307.00042281 478.57994466 304.5728284 478.58148981 C281.80560632 478.5952188 259.0384186 478.58977439 236.2711973 478.5783046 C215.44327914 478.5683722 194.6154498 478.58131232 173.78754534 478.60523879 C152.40061984 478.62962231 131.01373573 478.63923947 109.6267966 478.63258606 C97.61998974 478.62909213 85.61325121 478.63133738 73.60645485 478.64883709 C63.38512902 478.6635497 53.16391962 478.66420677 42.94259609 478.64676618 C37.72819258 478.63824605 32.51399715 478.63613147 27.29960442 478.65141773 C22.52393921 478.66524445 17.74866076 478.66052747 12.97301804 478.6411785 C11.24765438 478.637412 9.52225989 478.64035915 7.79692365 478.65079015 C-2.57234488 478.7090105 -10.92143161 477.99370582 -19.9609623 472.44672108 C-26.99324382 465.2190984 -30.4572892 457.80960651 -30.4682312 447.67716312 C-30.47173728 446.94385859 -30.47524335 446.21055406 -30.47885567 445.45502818 C-30.48816361 442.99647453 -30.48324794 440.53815807 -30.47838783 438.07959461 C-30.4821244 436.29962749 -30.48672595 434.519662 -30.49211848 432.73969913 C-30.50436313 427.84706268 -30.50408628 422.95449453 -30.50172973 418.06184626 C-30.50132193 412.78562679 -30.51235718 407.50942934 -30.52184486 402.2332201 C-30.53846399 391.89542379 -30.54395483 381.55765029 -30.54506962 371.21984175 C-30.54601968 362.81712982 -30.55012789 354.41442543 -30.55647087 346.01171589 C-30.57408595 322.19200532 -30.58330935 298.37231278 -30.58180992 274.55259565 C-30.58173001 273.26823321 -30.5816501 271.98387077 -30.58156776 270.66058826 C-30.581486 269.3746588 -30.58140424 268.08872933 -30.58132 266.7638323 C-30.58050708 245.92285705 -30.59964569 225.08195407 -30.6278445 204.24099973 C-30.65656588 182.84510154 -30.67038519 161.44923861 -30.66865695 140.05332065 C-30.66799278 128.03977231 -30.67349689 116.02629973 -30.69501305 104.01276875 C-30.71321502 93.78408081 -30.71758024 83.55550297 -30.7039942 73.32680586 C-30.69745957 68.10836157 -30.69736536 62.89012855 -30.7147007 57.67170429 C-30.73041439 52.89226537 -30.72758506 48.11320555 -30.71013243 43.33377597 C-30.7070588 41.60700382 -30.71070862 39.88020351 -30.72185259 38.15346459 C-30.7860133 27.50452353 -30.05909894 19.01960654 -24.0859623 9.88422108 C-16.79049909 2.90595192 -9.96091625 0.01364804 0 0 Z M-21.75545317 13.23417991 C-28.31767021 21.80058618 -27.77952044 31.185915 -27.72562599 41.47368336 C-27.73095472 43.24799395 -27.73802228 45.02230003 -27.74667305 46.79659754 C-27.76528396 51.65973138 -27.7590007 56.52256037 -27.74852002 61.38570678 C-27.74152365 66.63530458 -27.75752926 71.88484003 -27.77051735 77.13441944 C-27.79215514 87.41367944 -27.79203101 97.69282872 -27.7838918 107.97210401 C-27.77759102 116.3270782 -27.77872957 124.68202012 -27.78516388 133.03699398 C-27.78606553 134.22629268 -27.78696719 135.41559137 -27.78789617 136.64092942 C-27.78974738 139.05700831 -27.79160994 141.47308719 -27.79348373 143.88916606 C-27.81006141 166.54385611 -27.80134321 189.19848386 -27.78449815 211.85317016 C-27.76980101 232.5775807 -27.7844299 253.30184627 -27.81326831 274.02623814 C-27.84266337 295.30924073 -27.85363427 316.59217642 -27.84408611 337.87519842 C-27.84306356 340.28267641 -27.84206895 342.6901544 -27.8411026 345.09763241 C-27.84062621 346.28213781 -27.84014982 347.46664322 -27.83965899 348.68704272 C-27.83749503 357.0306413 -27.84729804 365.37417652 -27.86187363 373.71776104 C-27.87939221 383.88785017 -27.87928625 394.05775445 -27.85652197 404.2278363 C-27.84537566 409.4159586 -27.84222636 414.60375517 -27.86082268 419.79186344 C-27.87763531 424.54351319 -27.87126559 429.29455331 -27.84660589 434.04616363 C-27.84172481 435.7627476 -27.84523227 437.47938082 -27.85809333 439.19592356 C-27.93697092 450.54480149 -26.85984451 459.26804204 -18.9609623 468.00922108 C-10.07738852 476.02745395 -0.28031397 475.70652105 11.04584312 475.64215565 C12.81119079 475.6467678 14.5765346 475.65312283 16.34187043 475.66106462 C21.18027815 475.67773814 26.01836963 475.6695205 30.85677838 475.65711975 C36.0798049 475.64806338 41.30277733 475.662042 46.52579308 475.67303944 C56.75325694 475.69082368 66.98060336 475.68698484 77.20807181 475.67538887 C85.52156037 475.66635349 93.83501602 475.66513102 102.14850807 475.66948414 C103.33196732 475.67009707 104.51542657 475.67071 105.73474822 475.67134151 C108.13898738 475.67262042 110.54322653 475.67391727 112.94746567 475.67523187 C135.49155007 475.68663766 158.03556941 475.67352449 180.57964315 475.65203041 C199.91721482 475.63416408 219.25469043 475.63725974 238.59226036 475.65570545 C261.05285382 475.67712015 283.51339023 475.68553414 305.97399247 475.6732564 C308.36997357 475.67198222 310.76595468 475.67072473 313.16193581 475.66948414 C314.34077228 475.66886704 315.51960875 475.66824993 316.73416754 475.66761413 C325.03520546 475.6641627 333.33620715 475.66998525 341.63723946 475.67940235 C351.75714305 475.69063055 361.87692256 475.68756512 371.99681197 475.66627938 C377.1586859 475.6557794 382.3203531 475.65162923 387.48222542 475.66487598 C392.21103378 475.67682764 396.93944448 475.67019156 401.66821696 475.64896578 C403.37539621 475.64451141 405.08260931 475.64673968 406.78976665 475.65646893 C417.14257885 475.7109271 426.70085391 475.37670547 435.5077877 469.23968983 C442.74264435 461.44952621 444.9068226 454.52012789 444.92605209 443.87829781 C444.92870392 443.15458899 444.93135575 442.43088017 444.93408793 441.68524078 C444.94176456 439.25337023 444.94233948 436.82155031 444.94293785 434.38966846 C444.94695353 432.63118937 444.95139193 430.8727112 444.95621741 429.11423415 C444.96817661 424.27636568 444.97382983 419.43850718 444.97839856 414.60062683 C444.98435698 409.38506249 444.99596608 404.16951005 445.00668907 398.95395374 C445.03120528 386.35670113 445.04583789 373.75944457 445.05874914 361.16217545 C445.06246126 357.60461696 445.06643446 354.04705886 445.0705018 350.48950076 C445.09573551 328.3996798 445.11778953 306.30985821 445.13022995 284.22002602 C445.13315966 279.10410338 445.13612132 273.98818077 445.13913536 268.87225819 C445.14025444 266.96494534 445.14025444 266.96494534 445.14139612 265.01910093 C445.1540538 244.4140792 445.18728323 223.80914369 445.22893719 203.20416228 C445.27134634 182.052383 445.2949237 160.90064789 445.30015051 139.74882621 C445.30356547 127.87161006 445.31533109 115.99452871 445.34825325 104.11735439 C445.37624065 94.00391669 445.38725871 83.89064144 445.37605779 73.77716801 C445.37086812 68.61741063 445.37377834 63.45799352 445.39852333 58.29828548 C445.4209986 53.57240677 445.42028923 48.8471131 445.40131946 44.12122425 C445.39851708 42.41393122 445.40413122 40.70659866 445.4191324 38.99936924 C445.51232442 27.70037574 444.36876858 19.06637867 436.6640377 10.25922108 C427.59180171 2.03797189 415.76820307 2.55889058 404.28499413 2.61955738 C402.51720701 2.61422603 400.74942442 2.60715696 398.98165041 2.59851032 C394.14583758 2.57993463 389.31033206 2.58617044 384.47450674 2.59666336 C379.25084755 2.60366965 374.02725059 2.58764671 368.80360985 2.57466602 C358.57943502 2.55304579 348.35537158 2.55314769 338.13118141 2.56129157 C329.82106812 2.56759563 321.51098728 2.56645081 313.20087433 2.56001949 C312.01739734 2.55911784 310.83392034 2.55821618 309.61458041 2.55728721 C307.21025859 2.55543598 304.80593678 2.55357342 302.40161497 2.55169965 C279.86613922 2.53512848 257.33072611 2.54383505 234.79525412 2.56068522 C214.18090141 2.57538604 193.5666944 2.56074714 172.95236044 2.53191506 C151.77777564 2.50252019 130.60325809 2.49154877 109.42865378 2.50109726 C107.0335643 2.5021198 104.63847481 2.50311441 102.24338531 2.50408077 C101.06499811 2.50455716 99.8866109 2.50503355 98.67251499 2.50552438 C90.37297583 2.50768814 82.07350039 2.49788659 73.77397537 2.48330975 C63.65883108 2.46579155 53.54387264 2.46589676 43.42873567 2.4886614 C38.26895257 2.49980731 33.10949699 2.50295783 27.94972801 2.48436069 C23.2240628 2.46754736 18.49901056 2.47391867 13.773385 2.49857748 C12.06628202 2.50345827 10.35912951 2.49995189 8.65206801 2.48709004 C-3.45832948 2.40244706 -13.22975235 3.78687126 -21.75545317 13.23417991 Z " fill="#FEFEFE" transform="translate(47.21096229553223,16.865778923034668)"/>
<path d="M0 0 C6.93 0 13.86 0 21 0 C21 52.14 21 104.28 21 158 C14.07 158 7.14 158 0 158 C0 105.86 0 53.72 0 0 Z " fill="#F8F8F8" transform="translate(383,178)"/>
<path d="M0 0 C7.033367 7.07417957 8.90797225 14.47158774 9.3125 24.25 C9.19209167 33.0277676 6.28029276 40.82926232 0.1875 47.2109375 C-10.20330405 55.70913081 -21.0396179 56.16895679 -33.875 56.125 C-35.02742188 56.12886719 -36.17984375 56.13273437 -37.3671875 56.13671875 C-38.4603125 56.13542969 -39.5534375 56.13414062 -40.6796875 56.1328125 C-41.67726074 56.13168457 -42.67483398 56.13055664 -43.70263672 56.12939453 C-46 56 -46 56 -47 55 C-47.09396057 53.06693502 -47.11743517 51.13041162 -47.11352539 49.19506836 C-47.11344986 47.95385727 -47.11337433 46.71264618 -47.11329651 45.43382263 C-47.10818911 44.0691626 -47.1029731 42.70450298 -47.09765625 41.33984375 C-47.095792 39.95121817 -47.09436813 38.56259193 -47.09336853 37.17396545 C-47.08954387 33.51278885 -47.07971403 29.8516517 -47.06866455 26.19049072 C-47.05844932 22.45707737 -47.05387067 18.72365766 -47.04882812 14.99023438 C-47.03809171 7.66013823 -47.02101591 0.33007464 -47 -7 C-31.05587986 -9.73197975 -13.81584893 -9.19711987 0 0 Z " fill="#010101" transform="translate(326,201)"/>
<path d="M0 0 C3.3 0 6.6 0 10 0 C10 10.89 10 21.78 10 33 C22.21 33 34.42 33 47 33 C47 22.11 47 11.22 47 0 C50.3 0 53.6 0 57 0 C57 25.74 57 51.48 57 78 C53.7 78 50.4 78 47 78 C47 66.12 47 54.24 47 42 C34.79 42 22.58 42 10 42 C10 53.88 10 65.76 10 78 C6.7 78 3.4 78 0 78 C0 52.26 0 26.52 0 0 Z " fill="#FDFDFD" transform="translate(59,52)"/>
<path d="M0 0 C3.3 0 6.6 0 10 0 C10 18.48 10 36.96 10 56 C6.7 56 3.4 56 0 56 C0 37.52 0 19.04 0 0 Z " fill="#FFFFFF" transform="translate(134,74)"/>
<path d="M0 0 C3.0625 0.3125 3.0625 0.3125 4.9375 1.375 C6.68223477 4.37982099 6.37085443 6.92060131 6.0625 10.3125 C4.0625 12.3125 4.0625 12.3125 0.625 12.625 C-2.9375 12.3125 -2.9375 12.3125 -4.9375 11.25 C-6.55397822 8.11807344 -5.72415296 5.64064714 -4.9375 2.3125 C-2.9375 0.3125 -2.9375 0.3125 0 0 Z " fill="#F7F7F7" transform="translate(138.9375,51.6875)"/>
</svg>
